<svg width="210" height="246" viewBox="0 0 210 246" fill="none" xmlns="http://www.w3.org/2000/svg">
<path d="M62.244 235L56.056 226.348V235H50.568V215.26H56.056V223.772L62.188 215.26H68.516L61.264 224.836L68.88 235H62.244ZM83.3724 231.78H76.3724L75.3084 235H69.5404L76.7364 215.26H83.0644L90.2324 235H84.4364L83.3724 231.78ZM82.0004 227.58L79.8724 221.196L77.7724 227.58H82.0004ZM127.653 235.196C125.805 235.196 124.106 234.767 122.557 233.908C121.008 233.031 119.776 231.827 118.861 230.296C117.965 228.747 117.517 227.001 117.517 225.06C117.517 223.119 117.965 221.383 118.861 219.852C119.776 218.303 121.008 217.099 122.557 216.24C124.106 215.381 125.805 214.952 127.653 214.952C129.52 214.952 131.218 215.381 132.749 216.24C134.298 217.099 135.521 218.303 136.417 219.852C137.313 221.383 137.761 223.119 137.761 225.06C137.761 227.001 137.313 228.747 136.417 230.296C135.521 231.827 134.298 233.031 132.749 233.908C131.2 234.767 129.501 235.196 127.653 235.196ZM127.653 230.1C129.053 230.1 130.154 229.643 130.957 228.728C131.778 227.813 132.189 226.591 132.189 225.06C132.189 223.492 131.778 222.26 130.957 221.364C130.154 220.449 129.053 219.992 127.653 219.992C126.234 219.992 125.124 220.449 124.321 221.364C123.518 222.26 123.117 223.492 123.117 225.06C123.117 226.609 123.518 227.841 124.321 228.756C125.124 229.652 126.234 230.1 127.653 230.1ZM158.512 235H153.024L145.716 223.968V235H140.228V215.26H145.716L153.024 226.432V215.26H158.512V235Z" fill="#E1D9C3"/>
<path d="M115.065 215.26V235H109.577V224.108L105.853 235H101.261L97.5091 224.024V235H92.0211V215.26H98.6571L103.613 228.084L108.457 215.26H115.065Z" fill="#50997B"/>
<path d="M191.573 95.0341C205.451 80.2062 209.851 57.2115 202.429 38.3076C195.007 19.4036 176.137 5.54541 155.878 4.12056C125.171 1.96058 93.2106 31.0723 91.9393 61.8316C91.6283 69.354 93.6982 77.8855 100.238 81.6159C106.325 85.0879 114.633 82.866 119.199 77.5503C123.765 72.2347 124.914 64.5728 123.475 57.7145C122.036 50.8562 118.293 44.6905 113.995 39.1558C99.4869 20.4732 79.3632 2.34508 54.1217 4.12056C33.8632 5.54577 14.9931 19.4036 7.57087 38.3076C0.148613 57.2115 4.54928 80.2062 18.4266 95.0341" stroke="#E1D9C3" stroke-width="6.18942" stroke-miterlimit="10" stroke-linecap="round" stroke-linejoin="round"/>
<path d="M133.79 159.779L113.257 179.754C108.738 184.15 101.496 183.986 97.1812 179.389C91.3888 173.217 83.5972 165.025 78.2056 159.779" stroke="#E1D9C3" stroke-width="6.18942" stroke-miterlimit="10" stroke-linecap="round" stroke-linejoin="round"/>
<path d="M60.1721 140.632C68.6964 132.69 66.608 116.593 55.5075 104.679C44.407 92.7641 28.498 89.5434 19.9737 97.4852C11.4494 105.427 13.5378 121.524 24.6383 133.439C35.7388 145.353 51.6478 148.574 60.1721 140.632Z" stroke="#E1D9C3" stroke-width="6.18942" stroke-miterlimit="10" stroke-linecap="round" stroke-linejoin="round"/>
<path d="M187.221 101.035L158.85 134.014" stroke="#E1D9C3" stroke-width="6.18942" stroke-miterlimit="10" stroke-linecap="round" stroke-linejoin="round"/>
<path d="M147.73 119.117L169.102 96.4802C179.807 86.903 205.789 106.548 194.144 121.744L172.982 144.16" stroke="#E1D9C3" stroke-width="6.18942" stroke-miterlimit="10" stroke-linecap="round" stroke-linejoin="round"/>
</svg>
